<?xml version='1.0' encoding='UTF-8'?>
<svg width="58mm" height="58mm" version="1.1" xmlns="http://www.w3.org/2000/svg"><rect x="8mm" y="8mm" width="2mm" height="2mm" /><rect x="10mm" y="8mm" width="2mm" height="2mm" /><rect x="12mm" y="8mm" width="2mm" height="2mm" /><rect x="14mm" y="8mm" width="2mm" height="2mm" /><rect x="16mm" y="8mm" width="2mm" height="2mm" /><rect x="18mm" y="8mm" width="2mm" height="2mm" /><rect x="20mm" y="8mm" width="2mm" height="2mm" /><rect x="24mm" y="8mm" width="2mm" height="2mm" /><rect x="26mm" y="8mm" width="2mm" height="2mm" /><rect x="30mm" y="8mm" width="2mm" height="2mm" /><rect x="32mm" y="8mm" width="2mm" height="2mm" /><rect x="36mm" y="8mm" width="2mm" height="2mm" /><rect x="38mm" y="8mm" width="2mm" height="2mm" /><rect x="40mm" y="8mm" width="2mm" height="2mm" /><rect x="42mm" y="8mm" width="2mm" height="2mm" /><rect x="44mm" y="8mm" width="2mm" height="2mm" /><rect x="46mm" y="8mm" width="2mm" height="2mm" /><rect x="48mm" y="8mm" width="2mm" height="2mm" /><rect x="8mm" y="10mm" width="2mm" height="2mm" /><rect x="20mm" y="10mm" width="2mm" height="2mm" /><rect x="24mm" y="10mm" width="2mm" height="2mm" /><rect x="26mm" y="10mm" width="2mm" height="2mm" /><rect x="36mm" y="10mm" width="2mm" height="2mm" /><rect x="48mm" y="10mm" width="2mm" height="2mm" /><rect x="8mm" y="12mm" width="2mm" height="2mm" /><rect x="12mm" y="12mm" width="2mm" height="2mm" /><rect x="14mm" y="12mm" width="2mm" height="2mm" /><rect x="16mm" y="12mm" width="2mm" height="2mm" /><rect x="20mm" y="12mm" width="2mm" height="2mm" /><rect x="28mm" y="12mm" width="2mm" height="2mm" /><rect x="36mm" y="12mm" width="2mm" height="2mm" /><rect x="40mm" y="12mm" width="2mm" height="2mm" /><rect x="42mm" y="12mm" width="2mm" height="2mm" /><rect x="44mm" y="12mm" width="2mm" height="2mm" /><rect x="48mm" y="12mm" width="2mm" height="2mm" /><rect x="8mm" y="14mm" width="2mm" height="2mm" /><rect x="12mm" y="14mm" width="2mm" height="2mm" /><rect x="14mm" y="14mm" width="2mm" height="2mm" /><rect x="16mm" y="14mm" width="2mm" height="2mm" /><rect x="20mm" y="14mm" width="2mm" height="2mm" /><rect x="24mm" y="14mm" width="2mm" height="2mm" /><rect x="32mm" y="14mm" width="2mm" height="2mm" /><rect x="36mm" y="14mm" width="2mm" height="2mm" /><rect x="40mm" y="14mm" width="2mm" height="2mm" /><rect x="42mm" y="14mm" width="2mm" height="2mm" /><rect x="44mm" y="14mm" width="2mm" height="2mm" /><rect x="48mm" y="14mm" width="2mm" height="2mm" /><rect x="8mm" y="16mm" width="2mm" height="2mm" /><rect x="12mm" y="16mm" width="2mm" height="2mm" /><rect x="14mm" y="16mm" width="2mm" height="2mm" /><rect x="16mm" y="16mm" width="2mm" height="2mm" /><rect x="20mm" y="16mm" width="2mm" height="2mm" /><rect x="28mm" y="16mm" width="2mm" height="2mm" /><rect x="36mm" y="16mm" width="2mm" height="2mm" /><rect x="40mm" y="16mm" width="2mm" height="2mm" /><rect x="42mm" y="16mm" width="2mm" height="2mm" /><rect x="44mm" y="16mm" width="2mm" height="2mm" /><rect x="48mm" y="16mm" width="2mm" height="2mm" /><rect x="8mm" y="18mm" width="2mm" height="2mm" /><rect x="20mm" y="18mm" width="2mm" height="2mm" /><rect x="28mm" y="18mm" width="2mm" height="2mm" /><rect x="36mm" y="18mm" width="2mm" height="2mm" /><rect x="48mm" y="18mm" width="2mm" height="2mm" /><rect x="8mm" y="20mm" width="2mm" height="2mm" /><rect x="10mm" y="20mm" width="2mm" height="2mm" /><rect x="12mm" y="20mm" width="2mm" height="2mm" /><rect x="14mm" y="20mm" width="2mm" height="2mm" /><rect x="16mm" y="20mm" width="2mm" height="2mm" /><rect x="18mm" y="20mm" width="2mm" height="2mm" /><rect x="20mm" y="20mm" width="2mm" height="2mm" /><rect x="24mm" y="20mm" width="2mm" height="2mm" /><rect x="28mm" y="20mm" width="2mm" height="2mm" /><rect x="32mm" y="20mm" width="2mm" height="2mm" /><rect x="36mm" y="20mm" width="2mm" height="2mm" /><rect x="38mm" y="20mm" width="2mm" height="2mm" /><rect x="40mm" y="20mm" width="2mm" height="2mm" /><rect x="42mm" y="20mm" width="2mm" height="2mm" /><rect x="44mm" y="20mm" width="2mm" height="2mm" /><rect x="46mm" y="20mm" width="2mm" height="2mm" /><rect x="48mm" y="20mm" width="2mm" height="2mm" /><rect x="24mm" y="22mm" width="2mm" height="2mm" /><rect x="28mm" y="22mm" width="2mm" height="2mm" /><rect x="8mm" y="24mm" width="2mm" height="2mm" /><rect x="12mm" y="24mm" width="2mm" height="2mm" /><rect x="14mm" y="24mm" width="2mm" height="2mm" /><rect x="18mm" y="24mm" width="2mm" height="2mm" /><rect x="20mm" y="24mm" width="2mm" height="2mm" /><rect x="22mm" y="24mm" width="2mm" height="2mm" /><rect x="26mm" y="24mm" width="2mm" height="2mm" /><rect x="28mm" y="24mm" width="2mm" height="2mm" /><rect x="36mm" y="24mm" width="2mm" height="2mm" /><rect x="42mm" y="24mm" width="2mm" height="2mm" /><rect x="46mm" y="24mm" width="2mm" height="2mm" /><rect x="48mm" y="24mm" width="2mm" height="2mm" /><rect x="8mm" y="26mm" width="2mm" height="2mm" /><rect x="10mm" y="26mm" width="2mm" height="2mm" /><rect x="12mm" y="26mm" width="2mm" height="2mm" /><rect x="14mm" y="26mm" width="2mm" height="2mm" /><rect x="16mm" y="26mm" width="2mm" height="2mm" /><rect x="24mm" y="26mm" width="2mm" height="2mm" /><rect x="26mm" y="26mm" width="2mm" height="2mm" /><rect x="28mm" y="26mm" width="2mm" height="2mm" /><rect x="32mm" y="26mm" width="2mm" height="2mm" /><rect x="38mm" y="26mm" width="2mm" height="2mm" /><rect x="42mm" y="26mm" width="2mm" height="2mm" /><rect x="44mm" y="26mm" width="2mm" height="2mm" /><rect x="48mm" y="26mm" width="2mm" height="2mm" /><rect x="8mm" y="28mm" width="2mm" height="2mm" /><rect x="12mm" y="28mm" width="2mm" height="2mm" /><rect x="18mm" y="28mm" width="2mm" height="2mm" /><rect x="20mm" y="28mm" width="2mm" height="2mm" /><rect x="22mm" y="28mm" width="2mm" height="2mm" /><rect x="24mm" y="28mm" width="2mm" height="2mm" /><rect x="32mm" y="28mm" width="2mm" height="2mm" /><rect x="34mm" y="28mm" width="2mm" height="2mm" /><rect x="36mm" y="28mm" width="2mm" height="2mm" /><rect x="38mm" y="28mm" width="2mm" height="2mm" /><rect x="40mm" y="28mm" width="2mm" height="2mm" /><rect x="46mm" y="28mm" width="2mm" height="2mm" /><rect x="48mm" y="28mm" width="2mm" height="2mm" /><rect x="12mm" y="30mm" width="2mm" height="2mm" /><rect x="18mm" y="30mm" width="2mm" height="2mm" /><rect x="22mm" y="30mm" width="2mm" height="2mm" /><rect x="26mm" y="30mm" width="2mm" height="2mm" /><rect x="28mm" y="30mm" width="2mm" height="2mm" /><rect x="32mm" y="30mm" width="2mm" height="2mm" /><rect x="34mm" y="30mm" width="2mm" height="2mm" /><rect x="42mm" y="30mm" width="2mm" height="2mm" /><rect x="46mm" y="30mm" width="2mm" height="2mm" /><rect x="8mm" y="32mm" width="2mm" height="2mm" /><rect x="14mm" y="32mm" width="2mm" height="2mm" /><rect x="16mm" y="32mm" width="2mm" height="2mm" /><rect x="20mm" y="32mm" width="2mm" height="2mm" /><rect x="22mm" y="32mm" width="2mm" height="2mm" /><rect x="30mm" y="32mm" width="2mm" height="2mm" /><rect x="34mm" y="32mm" width="2mm" height="2mm" /><rect x="40mm" y="32mm" width="2mm" height="2mm" /><rect x="48mm" y="32mm" width="2mm" height="2mm" /><rect x="24mm" y="34mm" width="2mm" height="2mm" /><rect x="34mm" y="34mm" width="2mm" height="2mm" /><rect x="42mm" y="34mm" width="2mm" height="2mm" /><rect x="44mm" y="34mm" width="2mm" height="2mm" /><rect x="48mm" y="34mm" width="2mm" height="2mm" /><rect x="8mm" y="36mm" width="2mm" height="2mm" /><rect x="10mm" y="36mm" width="2mm" height="2mm" /><rect x="12mm" y="36mm" width="2mm" height="2mm" /><rect x="14mm" y="36mm" width="2mm" height="2mm" /><rect x="16mm" y="36mm" width="2mm" height="2mm" /><rect x="18mm" y="36mm" width="2mm" height="2mm" /><rect x="20mm" y="36mm" width="2mm" height="2mm" /><rect x="24mm" y="36mm" width="2mm" height="2mm" /><rect x="28mm" y="36mm" width="2mm" height="2mm" /><rect x="34mm" y="36mm" width="2mm" height="2mm" /><rect x="36mm" y="36mm" width="2mm" height="2mm" /><rect x="40mm" y="36mm" width="2mm" height="2mm" /><rect x="8mm" y="38mm" width="2mm" height="2mm" /><rect x="20mm" y="38mm" width="2mm" height="2mm" /><rect x="24mm" y="38mm" width="2mm" height="2mm" /><rect x="26mm" y="38mm" width="2mm" height="2mm" /><rect x="28mm" y="38mm" width="2mm" height="2mm" /><rect x="30mm" y="38mm" width="2mm" height="2mm" /><rect x="32mm" y="38mm" width="2mm" height="2mm" /><rect x="34mm" y="38mm" width="2mm" height="2mm" /><rect x="36mm" y="38mm" width="2mm" height="2mm" /><rect x="42mm" y="38mm" width="2mm" height="2mm" /><rect x="44mm" y="38mm" width="2mm" height="2mm" /><rect x="48mm" y="38mm" width="2mm" height="2mm" /><rect x="8mm" y="40mm" width="2mm" height="2mm" /><rect x="12mm" y="40mm" width="2mm" height="2mm" /><rect x="14mm" y="40mm" width="2mm" height="2mm" /><rect x="16mm" y="40mm" width="2mm" height="2mm" /><rect x="20mm" y="40mm" width="2mm" height="2mm" /><rect x="28mm" y="40mm" width="2mm" height="2mm" /><rect x="30mm" y="40mm" width="2mm" height="2mm" /><rect x="36mm" y="40mm" width="2mm" height="2mm" /><rect x="38mm" y="40mm" width="2mm" height="2mm" /><rect x="42mm" y="40mm" width="2mm" height="2mm" /><rect x="44mm" y="40mm" width="2mm" height="2mm" /><rect x="46mm" y="40mm" width="2mm" height="2mm" /><rect x="48mm" y="40mm" width="2mm" height="2mm" /><rect x="8mm" y="42mm" width="2mm" height="2mm" /><rect x="12mm" y="42mm" width="2mm" height="2mm" /><rect x="14mm" y="42mm" width="2mm" height="2mm" /><rect x="16mm" y="42mm" width="2mm" height="2mm" /><rect x="20mm" y="42mm" width="2mm" height="2mm" /><rect x="24mm" y="42mm" width="2mm" height="2mm" /><rect x="26mm" y="42mm" width="2mm" height="2mm" /><rect x="28mm" y="42mm" width="2mm" height="2mm" /><rect x="34mm" y="42mm" width="2mm" height="2mm" /><rect x="42mm" y="42mm" width="2mm" height="2mm" /><rect x="46mm" y="42mm" width="2mm" height="2mm" /><rect x="8mm" y="44mm" width="2mm" height="2mm" /><rect x="12mm" y="44mm" width="2mm" height="2mm" /><rect x="14mm" y="44mm" width="2mm" height="2mm" /><rect x="16mm" y="44mm" width="2mm" height="2mm" /><rect x="20mm" y="44mm" width="2mm" height="2mm" /><rect x="24mm" y="44mm" width="2mm" height="2mm" /><rect x="26mm" y="44mm" width="2mm" height="2mm" /><rect x="28mm" y="44mm" width="2mm" height="2mm" /><rect x="30mm" y="44mm" width="2mm" height="2mm" /><rect x="34mm" y="44mm" width="2mm" height="2mm" /><rect x="42mm" y="44mm" width="2mm" height="2mm" /><rect x="44mm" y="44mm" width="2mm" height="2mm" /><rect x="8mm" y="46mm" width="2mm" height="2mm" /><rect x="20mm" y="46mm" width="2mm" height="2mm" /><rect x="30mm" y="46mm" width="2mm" height="2mm" /><rect x="32mm" y="46mm" width="2mm" height="2mm" /><rect x="36mm" y="46mm" width="2mm" height="2mm" /><rect x="48mm" y="46mm" width="2mm" height="2mm" /><rect x="8mm" y="48mm" width="2mm" height="2mm" /><rect x="10mm" y="48mm" width="2mm" height="2mm" /><rect x="12mm" y="48mm" width="2mm" height="2mm" /><rect x="14mm" y="48mm" width="2mm" height="2mm" /><rect x="16mm" y="48mm" width="2mm" height="2mm" /><rect x="18mm" y="48mm" width="2mm" height="2mm" /><rect x="20mm" y="48mm" width="2mm" height="2mm" /><rect x="24mm" y="48mm" width="2mm" height="2mm" /><rect x="30mm" y="48mm" width="2mm" height="2mm" /><rect x="32mm" y="48mm" width="2mm" height="2mm" /><rect x="44mm" y="48mm" width="2mm" height="2mm" /></svg>